<svg xmlns="http://www.w3.org/2000/svg" xmlns:xlink="http://www.w3.org/1999/xlink" version="1.1" xml:space="preserve"
    viewBox="0 0 996.71 780.58">
    <defs>
    </defs>
    <rect x="0" y="0" width="100%" height="100%" fill="rgba(255,255,255,0)" />
    <g transform="matrix(3.0496 0 0 3.0496 501.2174 109.5816)" id="538752">
        <path
            style="stroke: none; stroke-width: 1; stroke-dasharray: none; stroke-linecap: butt; stroke-dashoffset: 0; stroke-linejoin: miter; stroke-miterlimit: 4; is-custom-font: none; font-file-url: none; fill: rgb(4,63,109); fill-rule: nonzero; opacity: 1;"
            transform=" translate(-167.4784, -42.7617)"
            d="M 327.736 44.886 c -52.066 0.82 -266.582 1.266 -320.238 0.584 C 4.312 45.43 4.07 40 7.368 40 c 55.31 0.068 246.512 -0.986 320.264 0.6 c 3.55 0.072 2.586 4.246 0.104 4.286 Z"
            stroke-linecap="round" />
    </g>
    <g transform="matrix(3.0496 0 0 3.0496 140.8323 455.6425)" id="981504">
        <path
            style="stroke: none; stroke-width: 1; stroke-dasharray: none; stroke-linecap: butt; stroke-dashoffset: 0; stroke-linejoin: miter; stroke-miterlimit: 4; is-custom-font: none; font-file-url: none; fill: rgb(0,176,255); fill-rule: nonzero; opacity: 1;"
            transform=" translate(-49.304, -156.2393)"
            d="M 80.662 262.666 c 3.828 -0.16 1.86 -2.844 0.228 -2.876 c -21.8 -0.428 -45.164 -0.96 -61.6 -0.704 c 1.27 -94.974 0.51 -154.9 1.03 -208.414 c 0.014 -1.418 -2.112 -1.2 -2.176 0.15 c -2.076 43.506 -0.8 160.666 -2.4 207.94 c -0.056 1.62 0.056 2.654 3.56 2.81 c 9.814 0.44 19.378 0.458 29.248 0.628 c 9.07 0.158 23.32 0.834 32.11 0.466 Z"
            stroke-linecap="round" />
    </g>
    <g transform="matrix(2.1057 0 0 5.2465 959.9802 447.8444)" id="533678">
        <path
            style="stroke: none; stroke-width: 1; stroke-dasharray: none; stroke-linecap: butt; stroke-dashoffset: 0; stroke-linejoin: miter; stroke-miterlimit: 4; is-custom-font: none; font-file-url: none; fill: rgb(0,176,255); fill-rule: nonzero; opacity: 1;"
            transform=" translate(-318.6952, -110.207)"
            d="M 319.498 168.4 c 0.962 -19.5 0.662 -39.258 0.75 -58.8 c 0.052 -11.552 0.576 -42.568 0.446 -57.79 c -0.022 -2.636 -2.74 -1.134 -2.768 0.2 c -0.526 25.846 -1.888 90.382 -0.9 116.418 c 0.084 2.192 2.374 2.16 2.472 -0.028 Z"
            stroke-linecap="round" />
    </g>
    <g transform="matrix(3.0496 0 0 3.0496 276.2134 279.0085)" id="699510">
        <path
            style="stroke: none; stroke-width: 1; stroke-dasharray: none; stroke-linecap: butt; stroke-dashoffset: 0; stroke-linejoin: miter; stroke-miterlimit: 4; is-custom-font: none; font-file-url: none; fill: rgb(0,176,255); fill-rule: nonzero; opacity: 1;"
            transform=" translate(-93.6974, -98.3193)"
            d="M 50.892 108.8 c 0 -6.34 0.054 -12.676 0 -19.016 c 28.556 -0.164 57.13 -0.326 85.682 -0.842 c 0.024 5.548 0 11.096 0 16.644 c -27.274 0.698 -55.164 1.726 -82.52 2.216 c -1.762 0.032 -1.476 2.664 0.228 2.686 c 27.622 0.334 56.092 -1.428 83.8 -2.146 a 1.426 1.426 0 0 0 1.276 -1.51 c 0 -6.478 -0.022 -12.958 0.022 -19.436 a 1.438 1.438 0 0 0 -1.524 -1.284 c -29.502 0.018 -59.024 0.42 -88.526 0.814 a 1.466 1.466 0 0 0 -1.312 1.554 c 0.164 6.84 0.512 13.664 0.748 20.5 c 0.034 1.39 2.124 1.194 2.126 -0.18 Z"
            stroke-linecap="round" />
    </g>
    <g transform="matrix(3.0496 0 0 3.0496 277.822 413.7634)" id="274438">
        <path
            style="stroke: none; stroke-width: 1; stroke-dasharray: none; stroke-linecap: butt; stroke-dashoffset: 0; stroke-linejoin: miter; stroke-miterlimit: 4; is-custom-font: none; font-file-url: none; fill: rgb(0,176,255); fill-rule: nonzero; opacity: 1;"
            transform=" translate(-94.2249, -142.5075)"
            d="M 49.228 154.514 c 29.824 -1.164 60.53 -1.3 90.172 -3.342 a 1.462 1.462 0 0 0 1.472 -1.724 c -0.524 -4.228 -1.05 -8.456 -1.6 -12.68 c -0.23 -1.754 -2.862 -1.154 -2.67 0.568 c 0.4 3.67 0.844 7.338 1.28 11 c -28.956 1.222 -58.168 2.048 -87 2.972 c 0 -5.734 -0.03 -11.476 0.132 -17.2 c 29.15 -0.302 57.8 -0.774 87.27 -0.534 a 1.096 1.096 0 0 0 0.11 -2.188 c -29.584 -1.362 -59.292 -0.762 -89 -0.702 a 1.748 1.748 0 0 0 -1.84 1.664 c 0.246 6.826 0.154 13.676 0.178 20.51 a 1.6 1.6 0 0 0 1.496 1.656 Z"
            stroke-linecap="round" />
    </g>
    <g transform="matrix(3.0496 0 0 3.0496 279.1894 549.8523)" id="22842">
        <path
            style="stroke: none; stroke-width: 1; stroke-dasharray: none; stroke-linecap: butt; stroke-dashoffset: 0; stroke-linejoin: miter; stroke-miterlimit: 4; is-custom-font: none; font-file-url: none; fill: rgb(0,176,255); fill-rule: nonzero; opacity: 1;"
            transform=" translate(-94.6733, -187.1331)"
            d="M 136.946 194.566 c -14.32 0.19 -32.538 -0.094 -47.228 0.6 c -1.23 0.058 -1.174 2.566 0.032 2.586 c 13.226 0.226 33.242 -0.428 48.532 -0.106 c 1.69 0.036 1.768 -1.6 1.57 -2.816 a 58.364 58.364 0 0 1 -0.158 -18.04 a 1.47 1.47 0 0 0 -1.486 -1.742 c -29.096 0.688 -58.2 1.764 -87.294 2.23 a 1.516 1.516 0 0 0 -1.412 1.558 c -0.052 6.296 -0.04 12.6 -0.084 18.888 a 1.6 1.6 0 0 0 1.648 1.494 c 8.4 -0.308 15.014 -0.262 23.416 -0.78 c 1.4 -0.086 1.282 -2.612 -0.106 -2.616 a 853.64 853.64 0 0 0 -21.824 0.228 c -0.03 -5.282 -0.036 -10.564 -0.072 -15.846 c 28.044 -1 56.11 -1.44 84.16 -2.224 a 60.8 60.8 0 0 0 0.306 16.586 Z"
            stroke-linecap="round" />
    </g>
    <g transform="matrix(0 2.9421 -28.2552 0 617.7034 776.3259)" id="350838">
        <path
            style="stroke: none; stroke-width: 1; stroke-dasharray: none; stroke-linecap: butt; stroke-dashoffset: 0; stroke-linejoin: miter; stroke-miterlimit: 4; is-custom-font: none; font-file-url: none; fill: rgb(0,176,255); fill-rule: nonzero; opacity: 1;"
            transform=" translate(-318.0608, -207.4627)"
            d="M 319.264 219.068 c 0.508 -4.312 0.056 -15.8 0.074 -22.522 c 0 -2.412 -2.264 -1.526 -2.346 -0.516 a 192.068 192.068 0 0 0 -0.06 23.042 c 0.09 1.146 2.2 1.128 2.332 -0.004 Z"
            stroke-linecap="round" />
    </g>
    <g transform="matrix(2.1557 0 0 2.109 703.2679 422.1937)" id="657868">
        <path
            style="stroke: rgb(0,176,255); stroke-width: 2; stroke-dasharray: none; stroke-linecap: butt; stroke-dashoffset: 0; stroke-linejoin: miter; stroke-miterlimit: 4; is-custom-font: none; font-file-url: none; fill: none; fill-rule: nonzero; opacity: 1;"
            vector-effect="non-scaling-stroke" transform=" translate(-78.3899, -79.0002)"
            d="M 144.487 63.6247 L 144.496 63.628 C 153.08 66.6553 157.584 76.0674 154.557 84.651 C 152.898 89.3537 149.199 93.0526 144.497 94.711 L 132.206 99.033 L 129.594 99.9512 L 130.773 102.456 L 136.177 113.938 L 136.203 113.993 L 136.231 114.047 C 140.502 122.085 137.449 132.062 129.411 136.333 C 124.576 138.902 118.781 138.902 113.945 136.333 L 113.894 136.306 L 113.842 136.281 L 102.427 130.878 L 99.9318 129.696 L 99.0032 132.296 L 94.6207 144.567 C 94.6194 144.571 94.6181 144.574 94.6167 144.578 C 92.2125 151.101 85.9732 155.414 79.0205 155.358 L 79.0082 155.358 L 78.996 155.358 C 71.996 155.37 65.7458 150.976 63.3876 144.386 C 63.3875 144.386 63.3875 144.386 63.3874 144.385 L 59.0649 132.295 L 58.1379 129.703 L 55.6463 130.875 L 44.1638 136.279 L 44.1088 136.305 L 44.0552 136.333 C 36.0177 140.604 26.0402 137.551 21.7692 129.513 C 19.1999 124.678 19.1999 118.883 21.7692 114.047 L 21.7977 113.994 L 21.8236 113.939 L 27.2272 102.456 L 28.4001 99.9638 L 25.806 99.0374 L 13.5129 94.6469 L 13.5036 94.6436 C 4.92019 91.6163 0.416323 82.2038 3.44362 73.6206 L 1.28007 72.8575 L 3.44363 73.6205 C 5.10191 68.9186 8.79963 65.2202 13.5011 63.5614 C 13.5018 63.5611 13.5025 63.5608 13.5032 63.5606 L 25.7941 59.2387 L 28.3996 58.3225 L 27.2293 55.8208 L 21.8256 44.2708 L 21.8047 44.2261 L 21.7821 44.1823 C 17.5858 36.0638 20.7655 26.0806 28.884 21.8843 L 28.884 21.8843 C 33.6499 19.4209 39.3141 19.4209 44.08 21.8843 L 44.1214 21.9057 L 44.1635 21.9255 L 55.6461 27.3288 L 58.1507 28.5074 L 59.069 25.8961 L 63.3869 13.6163 C 63.3877 13.6142 63.3885 13.6121 63.3892 13.6099 C 66.472 5.01009 75.9415 0.535141 84.5434 3.61446 L 84.5435 3.61448 C 89.2061 5.28347 92.8759 8.95347 94.5452 13.6163 L 94.5487 13.626 L 99.0066 25.919 L 99.9433 28.5019 L 102.426 27.3264 L 113.822 21.9323 C 113.825 21.9308 113.828 21.9294 113.831 21.9279 C 120.165 19.0016 127.648 20.2898 132.639 25.1664 L 132.649 25.1766 L 132.66 25.1867 C 137.825 30.1176 139.245 37.8065 136.18 44.2571 L 136.177 44.2638 L 136.174 44.2705 L 130.77 55.8205 L 129.606 58.3099 L 132.194 59.2343 L 144.487 63.6247 Z"
            stroke-linecap="round" />
    </g>
</svg>